<?xml version="1.0" encoding="UTF-8" standalone="no"?>
<svg
   xmlns:dc="http://purl.org/dc/elements/1.1/"
   xmlns:cc="http://creativecommons.org/ns#"
   xmlns:rdf="http://www.w3.org/1999/02/22-rdf-syntax-ns#"
   xmlns:svg="http://www.w3.org/2000/svg"
   xmlns="http://www.w3.org/2000/svg"
   xmlns:sodipodi="http://sodipodi.sourceforge.net/DTD/sodipodi-0.dtd"
   xmlns:inkscape="http://www.inkscape.org/namespaces/inkscape"
   viewBox="-22 347 512 512"
   version="1.1"
   id="svg6"
   sodipodi:docname="icon.svg"
   width="512"
   height="512"
   inkscape:version="0.92.2 5c3e80d, 2017-08-06"
   inkscape:export-filename="/Users/alexander.deakin/me/CoffeeScriptConsole/src/icon-48.png"
   inkscape:export-xdpi="9"
   inkscape:export-ydpi="9">
  <metadata
     id="metadata12">
    <rdf:RDF>
      <cc:Work
         rdf:about="">
        <dc:format>image/svg+xml</dc:format>
        <dc:type
           rdf:resource="http://purl.org/dc/dcmitype/StillImage" />
        <dc:title>
    CoffeeScript Logo
  </dc:title>
      </cc:Work>
    </rdf:RDF>
  </metadata>
  <defs
     id="defs10" />
  <sodipodi:namedview
     pagecolor="#ffffff"
     bordercolor="#666666"
     borderopacity="1"
     objecttolerance="10"
     gridtolerance="10"
     guidetolerance="10"
     inkscape:pageopacity="0"
     inkscape:pageshadow="2"
     inkscape:window-width="1317"
     inkscape:window-height="837"
     id="namedview8"
     showgrid="false"
     inkscape:zoom="0.87374798"
     inkscape:cx="191.02523"
     inkscape:cy="212.74058"
     inkscape:window-x="0"
     inkscape:window-y="654"
     inkscape:window-maximized="0"
     inkscape:current-layer="svg6" />
  <title
     id="title2">
    CoffeeScript Logo
  </title>
  <g
     id="g890"
     transform="matrix(1.0199203,0,0,1.0199203,-4.6613502,-8.3170479)">
    <path
       style="stroke-width:2.71092677"
       inkscape:connector-curvature="0"
       d="m 331.43531,447.53978 c -23.34436,6.64884 -53.25433,11.18216 -89.24357,11.18216 -36.71874,0 -66.62871,-4.83553 -89.9731,-11.18216 -20.91265,-6.64887 -32.09848,-13.90217 -35.98923,-21.4577 3.89075,32.63986 12.88805,63.4664 24.8034,90.6663 8.9973,16.92438 17.99462,31.73322 26.99193,47.75093 3.89072,9.36884 6.56559,18.7377 8.26779,28.10655 5.83609,10.27553 14.34708,16.92439 24.8034,20.55105 12.88803,5.74219 26.26241,8.15996 39.87996,7.2533 h 1.45902 c 13.61755,0.90666 27.9646,-1.81333 41.09581,-7.2533 9.72683,-3.92888 17.99463,-10.27552 24.07388,-20.55105 h 0.72952 c 1.45903,-9.36885 3.89073,-18.73771 7.53829,-28.10655 8.9973,-16.01771 17.99461,-30.82655 26.99191,-47.75093 11.91536,-26.89766 20.18316,-57.72422 24.80339,-90.6663 -4.86339,8.46219 -16.04924,15.71549 -36.2324,21.4577 z m -89.48674,-25.99101 c -31.36899,0 -59.3336,-3.92888 -79.51675,-9.36887 -21.64217,-6.64886 -33.0712,-13.90216 -33.0712,-23.27102 0,-3.92887 1.45903,-7.2533 5.83609,-11.18217 -13.61754,6.64886 -20.91266,12.08884 -20.91266,20.55103 0.72951,9.36886 12.88804,18.73771 37.69143,25.99101 23.34437,7.2533 53.25434,11.18219 89.24359,11.18219 36.71874,0 65.89921,-3.92889 89.24357,-11.18219 24.80338,-7.2533 36.71874,-16.92438 36.71874,-25.99101 0,-6.64887 -5.34976,-12.9955 -15.07656,-17.83105 2.18851,1.81333 3.89071,4.83555 3.89071,8.15997 0,9.36885 -11.18583,16.92438 -33.80069,23.27102 -20.91265,5.74221 -47.66141,9.67109 -80.24627,9.67109 z m -130.33939,69.81305 c -8.2678,12.99551 -11.915356,28.10656 -11.18585,42.91538 0.72951,14.80884 6.5656,26.89768 15.80608,36.26653 9.72684,9.36885 20.18317,12.08884 32.09853,9.36885 4.62022,-0.90666 9.72679,-3.92887 14.34704,-5.74219 -9.72682,0 -17.99462,-3.92888 -26.2624,-12.08885 -8.99731,-8.15996 -15.07659,-19.64436 -16.53559,-33.54652 -2.18855,-12.99551 0,-25.08436 5.83609,-35.66209 6.5656,-10.27552 15.07657,-16.01772 26.2624,-17.83104 11.18586,-0.90667 20.91266,2.71999 30.63949,11.18218 -2.18855,-3.92888 -5.34975,-6.64886 -8.2678,-10.27552 -9.72682,-8.15997 -20.18314,-12.08884 -33.07119,-8.15997 -11.67219,3.02221 -21.39899,10.57774 -29.6668,23.57324 z m 94.8365,-126.3284 c 0.24317,1.81333 -0.48635,3.32443 -2.91805,4.83553 -3.16122,-2.11554 -9.96999,-3.32443 -15.56292,-2.71998 -6.07926,0.60444 -11.18583,3.0222 -10.45633,8.15997 0.97269,5.13775 6.80878,8.15996 17.26512,6.95108 25.53289,-2.71999 25.28972,-24.17767 62.73799,-28.40878 29.18045,-3.32442 45.47288,7.85775 47.6614,21.4577 1.7022,10.57774 -5.34974,20.85324 -26.50558,22.9688 -18.72412,2.11555 -29.66679,-4.23109 -30.63948,-10.57775 -0.48634,-3.32442 0.97269,-8.15996 9.97,-9.36884 0.97268,5.13775 6.07926,10.57773 18.23777,9.06663 8.75414,-0.90665 16.04927,-4.83554 15.07658,-10.87995 -0.97269,-6.34666 -10.21316,-9.97331 -24.80338,-8.46219 -29.66681,3.32443 -36.96193,23.57323 -62.25166,26.29322 -17.99463,2.11555 -32.58485,-6.04442 -34.5302,-18.13326 -0.72951,-4.53331 -0.72951,-15.11106 18.23777,-17.22659 9.72683,-0.90666 17.50829,1.20888 18.48097,6.04441 z"
       id="path862" />
    <path
       style="stroke-width:1.22349501"
       inkscape:connector-curvature="0"
       d="m 470.4404,716.63429 c -0.36704,1.34584 -0.61173,2.69168 -0.61173,3.79284 0,2.32464 0.85644,3.91517 3.79283,3.91517 0.85644,0 2.07994,0 2.93639,-0.36704 -3.05875,9.54326 -8.07508,10.88911 -11.74555,10.88911 -7.83038,0 -11.13382,-5.38338 -11.13382,-12.60201 0,-1.95759 0.24471,-3.79283 0.7341,-5.87277 l 7.09628,-33.27907 h -3.67049 l 0.85644,-4.40458 h 3.67049 l 3.30344,-15.29369 16.39483,-2.32464 c 0,0 -1.71289,7.58568 -3.79283,17.61833 H 485 l -0.85645,4.40458 h -6.72922 z m -34.01315,-21.16646 c 0,-8.56447 -3.54814,-9.17621 -5.50573,-9.17621 -2.44699,0 -5.50573,1.95759 -7.70802,5.38337 l -6.60688,31.19912 c 0.48941,1.2235 1.71291,2.56935 4.15989,2.56935 11.8679,0 15.66074,-19.45357 15.66074,-29.97563 z m -9.54327,-20.79942 -1.83523,8.44211 c 3.18108,-2.81403 7.46331,-4.77162 13.09139,-4.77162 7.58566,0 13.58079,4.28223 13.58079,17.61833 0,14.92663 -5.75042,39.27418 -27.28393,39.27418 -5.50574,0 -8.31977,-1.95759 -9.42091,-3.91518 l -5.75044,27.03924 -16.76188,3.91518 18.59713,-87.47989 z m -35.6037,-19.57592 c 4.89398,0 8.80917,3.91518 8.80917,8.80917 0,4.89397 -3.91519,8.68681 -8.80917,8.68681 -4.89398,0 -8.68681,-3.79284 -8.68681,-8.68681 -0.12236,-4.89399 3.91518,-8.80917 8.68681,-8.80917 z m 5.01633,23.7358 -8.07506,37.806 c -0.36706,1.4682 -0.4894,2.56934 -0.4894,3.54814 0,3.05873 1.46819,4.03753 4.52693,4.03753 4.28223,0 8.44211,-4.15988 9.9103,-9.78796 h 4.64929 c -6.36218,18.10773 -17.37363,20.55471 -23.36876,20.55471 -6.72922,0 -11.8679,-3.91517 -11.8679,-13.33609 0,-2.20229 0.36705,-4.52693 0.85645,-7.21862 l 7.58567,-35.72606 z m -41.84352,0 -1.4682,6.97392 c 3.79284,-3.30343 8.19742,-6.97392 13.45844,-6.97392 5.01633,0 7.70802,4.03753 7.70802,8.44212 0,3.79283 -2.56934,8.19742 -8.07507,8.19742 -6.23982,0 -3.05873,-7.34098 -6.48452,-7.34098 -3.30344,0 -5.38338,1.7129 -8.19742,4.15989 l -8.80916,42.33292 h -16.02779 l 11.74556,-55.54667 z m -33.89082,9.29856 c 0,-2.81403 -0.9788,-4.52692 -3.05874,-4.52692 -6.97392,0 -14.31489,20.31001 -14.31489,32.66731 0,7.58567 2.69169,9.29856 8.07506,9.29856 8.68682,0 14.19255,-4.89398 19.69827,-11.25616 h 3.79285 c -6.36218,10.15502 -15.78309,20.55473 -30.58738,20.55473 -10.39971,0 -17.37363,-5.13869 -17.37363,-17.74068 0,-12.96905 7.34097,-39.51889 29.97563,-39.51889 9.91031,0 12.3573,5.13868 12.3573,10.15501 0,5.38337 -2.69169,8.19742 -5.87278,8.19742 -1.22349,0 -2.56934,-0.4894 -3.79283,-1.34585 0.61174,-2.32464 1.10114,-4.40459 1.10114,-6.48453 z m -44.29052,-12.602 c -2.07994,0 -3.67048,-0.73409 -5.13867,-2.32463 2.93638,-1.83525 5.01633,-5.87278 5.01633,-9.54326 0,-3.79283 -2.2023,-7.46332 -8.31977,-7.46332 -6.11748,0 -10.15501,3.42578 -10.15501,10.03266 0,16.27248 25.08164,18.59712 25.08164,42.57762 0,18.71948 -15.04899,27.77334 -31.32146,27.77334 -12.72435,0 -23.61346,-5.50572 -23.61346,-19.20887 0,-11.99025 8.56447,-18.23008 16.27249,-18.23008 3.79283,0 9.42091,1.59055 9.78795,7.34097 -5.99512,0 -13.09139,2.81404 -13.09139,10.39971 0,5.50573 3.54813,10.64441 10.64441,10.64441 7.46331,0 12.96904,-5.38338 12.96904,-14.68195 0,-19.08652 -22.75701,-25.81574 -22.75701,-42.21057 0,-11.62321 11.3785,-19.94297 25.6934,-19.94297 5.26103,0 17.86303,1.10115 17.86303,13.33609 0.12235,6.72922 -3.42579,11.50085 -8.93152,11.50085 z m -62.76529,8.19742 c -5.50573,0 -11.13381,12.3573 -13.45845,22.87936 8.68682,-0.4894 16.27249,-8.93151 16.27249,-18.35242 0,-2.6917 -0.7341,-4.52694 -2.81404,-4.52694 z m -7.58567,40.86474 c 4.15988,0 9.54326,-2.81404 13.21375,-5.87277 -2.44699,12.72434 -10.27737,16.39483 -19.33123,16.39483 -10.27735,0 -17.25127,-5.13869 -17.25127,-17.74068 0,-12.8467 7.21861,-39.5189 30.09798,-39.5189 9.9103,0 12.23494,5.13869 12.23494,10.64441 0,12.96905 -12.23494,22.63466 -25.57104,23.4911 -0.12236,1.10116 -0.2447,2.447 -0.2447,3.30344 0,6.97392 3.05873,9.29857 6.85157,9.29857 z m -34.99196,-40.86474 c -5.62808,0 -11.1338,11.8679 -13.33609,22.87936 8.56447,-0.61174 16.15013,-9.05387 16.15013,-18.35242 0,-2.6917 -0.61174,-4.52694 -2.81404,-4.52694 z m -6.48452,42.08823 c 8.68682,0 14.19254,-4.89398 19.69826,-11.25615 h 3.79285 c -6.36218,10.155 -15.78309,20.55472 -30.58739,20.55472 -10.3997,0 -17.37362,-5.13869 -17.37362,-17.74068 0,-12.8467 7.21862,-39.5189 30.09797,-39.5189 9.91032,0 12.23496,5.13869 12.23496,10.64441 0,12.84671 -12.23496,22.63466 -25.57104,23.4911 -0.12236,1.59055 -0.24471,3.05875 -0.24471,4.40459 0,7.58567 2.69169,9.42091 7.95272,9.42091 z m -46.37046,-64.84523 c -2.44699,0 -5.87278,1.34584 -7.58567,8.68681 l -2.07994,9.05386 h 11.01145 l 2.56935,-11.6232 c 0.24469,-0.85644 0.24469,-1.59055 0.24469,-2.44699 0.12235,-2.44698 -1.83524,-3.67048 -4.15988,-3.67048 z m -20.31002,69.37216 11.50086,-2.07994 9.42091,-45.02461 h -11.01146 z m 1.71289,22.02291 c 2.32464,0 5.13869,-2.20228 6.60688,-8.68681 l 2.69169,-12.72435 -11.50085,2.20229 -2.2023,10.15501 c -0.61174,2.56934 -1.34584,4.89398 -2.20229,6.85158 1.10115,1.59053 3.67049,2.20228 6.60687,2.20228 z m -26.549836,0 c 2.32464,0 5.138679,-2.20228 6.606872,-8.68681 l 1.345846,-6.48452 c -6.973922,2.44698 -12.357297,5.38337 -12.357297,11.50085 0,1.4682 2.079938,3.67048 4.404579,3.67048 z m -11.133807,-2.20228 c 0,-10.15502 8.686817,-13.45846 19.331223,-16.63954 l 13.3361,-63.49939 c 3.30343,-15.90544 12.96904,-18.96418 20.18767,-18.96418 5.01633,0 9.78795,2.69169 11.86789,6.97393 4.40458,-5.62808 10.27736,-6.97393 15.17135,-6.97393 6.85156,0 13.21374,4.77164 13.21374,11.99026 0,1.83524 -0.12235,3.18109 -0.36705,4.52693 h -5.26103 c 0.12236,-1.10115 0.2447,-2.07995 0.2447,-2.93639 0,-2.56934 -2.07994,-3.79283 -4.15988,-3.79283 -2.44699,0 -5.87278,1.34585 -7.58567,8.68682 l -2.07994,9.05386 h 11.1338 l -0.97879,4.40458 h -11.01146 l -12.602,60.0736 c -3.30343,15.90544 -12.96904,18.96417 -20.18767,18.96417 -6.36217,0 -10.155004,-2.81403 -11.990246,-6.97392 -4.282233,5.62808 -10.155009,6.97392 -15.048989,6.97392 -6.851569,0.12235 -13.213748,-4.64928 -13.213748,-11.86789 z m 8.075072,-48.57276 c -2.324641,-0.61174 -2.936388,-2.44699 -2.936388,-4.64928 0,-3.05874 1.468194,-5.13868 3.425783,-5.99512 -0.244698,-4.64928 -1.345842,-6.48453 -4.15988,-6.48453 -7.952722,0 -14.681946,20.31002 -14.681946,31.32147 0,7.34098 1.468195,8.93151 5.628078,8.93151 5.138679,0.12236 10.88911,-9.78796 12.724353,-23.12405 z m 9.420909,-6.11747 c 0.489398,0.2447 0.856447,0.2447 1.223495,0.2447 5.138678,0 12.357297,-3.30344 17.128927,-6.72922 l 0.9788,2.93638 c -4.15988,4.52693 -11.623203,7.95272 -19.698271,9.17621 -1.835242,20.55472 -12.969044,33.40142 -26.549844,33.40142 -10.277357,0 -17.740677,-4.89399 -17.740677,-17.61833 0,-12.8467 7.58567,-39.39654 30.46503,-39.39654 9.543259,0.36704 14.19254,6.48453 14.19254,17.98538 z M 39.03607,715.4108 C 33.163294,730.21508 17.502558,736.08786 7.3475501,736.08786 -9.0472826,736.08786 -17,728.74689 -17,708.80392 c 0,-20.18766 9.6656104,-57.87131 38.784791,-57.87131 10.399707,0 18.597124,4.03753 18.597124,14.80429 0,5.87278 -2.202291,10.15501 -7.830368,10.15501 -1.835243,0 -4.159884,-0.4894 -6.362175,-2.93639 2.69169,-1.34584 5.13868,-5.99513 5.13868,-10.15501 0,-3.54813 -1.835243,-6.85157 -6.851573,-6.85157 -12.23495,0 -23.1240541,29.24152 -23.1240541,51.87619 0,10.155 2.6916882,17.37362 13.3360951,17.37362 8.686814,0 16.517182,-4.15987 21.655861,-11.1338 z"
       id="path4" />
    <text
       id="text874"
       y="830.40735"
       x="-33.837143"
       style="font-style:normal;font-weight:normal;font-size:99.25637817px;line-height:125%;font-family:sans-serif;letter-spacing:0px;word-spacing:0px;fill:#000000;fill-opacity:1;stroke:none;stroke-width:2.48140955px;stroke-linecap:butt;stroke-linejoin:miter;stroke-opacity:1"
       xml:space="preserve"><tspan
         style="font-style:normal;font-variant:normal;font-weight:600;font-stretch:normal;font-size:99.25637817px;font-family:'Source Code Pro';-inkscape-font-specification:'Source Code Pro, Semi-Bold';font-variant-ligatures:normal;font-variant-caps:normal;font-variant-numeric:normal;font-feature-settings:normal;text-align:start;writing-mode:lr-tb;text-anchor:start;stroke-width:2.48140955px"
         y="830.40735"
         x="-33.837143"
         id="tspan872"
         sodipodi:role="line">[console]</tspan></text>
  </g>
</svg>
